<svg width="40" height="40" viewBox="0 0 40 40" fill="none" xmlns="http://www.w3.org/2000/svg">
<path d="M11.875 15.625C11.875 13.5539 13.5539 11.875 15.625 11.875H24.375C26.4461 11.875 28.125 13.5539 28.125 15.625V24.375C28.125 26.4461 26.4461 28.125 24.375 28.125H15.625C13.5539 28.125 11.875 26.4461 11.875 24.375V15.625Z" fill="url(#paint0_linear_322_30477)"/>
<path d="M3.4375 10.3125C5.33598 10.3125 6.875 11.8515 6.875 13.75V28.125C6.875 30.8864 9.11354 33.125 11.875 33.125H26.25C28.1485 33.125 29.6875 34.664 29.6875 36.5625C29.6875 38.461 28.1485 40 26.25 40H11.875C5.31662 40 0 34.6834 0 28.125V13.75C0 11.8515 1.53902 10.3125 3.4375 10.3125Z" fill="url(#paint1_linear_322_30477)"/>
<path d="M36.5625 29.6875C34.664 29.6875 33.125 28.1485 33.125 26.25L33.125 11.875C33.125 9.11362 30.8865 6.875 28.125 6.875L13.75 6.875C11.8515 6.875 10.3125 5.33598 10.3125 3.4375C10.3125 1.53902 11.8515 -1.6597e-07 13.75 0L28.125 1.2567e-06C34.6834 1.83005e-06 40 5.31662 40 11.875L40 26.25C40 28.1485 38.461 29.6875 36.5625 29.6875Z" fill="url(#paint2_linear_322_30477)"/>
<defs>
<linearGradient id="paint0_linear_322_30477" x1="20" y1="11.875" x2="20" y2="28.125" gradientUnits="userSpaceOnUse">
<stop stop-color="#03E39E"/>
<stop offset="1" stop-color="#03986A"/>
</linearGradient>
<linearGradient id="paint1_linear_322_30477" x1="14.8438" y1="10.3125" x2="14.8438" y2="40" gradientUnits="userSpaceOnUse">
<stop stop-color="#7D72CB"/>
<stop offset="1" stop-color="#4B3EA8"/>
</linearGradient>
<linearGradient id="paint2_linear_322_30477" x1="25.1562" y1="0" x2="25.1563" y2="29.6875" gradientUnits="userSpaceOnUse">
<stop stop-color="#7D72CB"/>
<stop offset="1" stop-color="#4B3EA8"/>
</linearGradient>
</defs>
</svg>
