<svg width="128" height="128" viewBox="0 0 128 128" fill="none" xmlns="http://www.w3.org/2000/svg">
<path d="M38 50C38 43.3726 43.3726 38 50 38H78C84.6274 38 90 43.3726 90 50V78C90 84.6274 84.6274 90 78 90H50C43.3726 90 38 84.6274 38 78V50Z" fill="url(#paint0_linear_322_30457)"/>
<path d="M11 33C17.0751 33 22 37.9249 22 44V90C22 98.8364 29.1633 106 38 106H84C90.0751 106 95 110.925 95 117C95 123.075 90.0751 128 84 128H38C17.0132 128 0 110.987 0 90V44C0 37.9249 4.92487 33 11 33Z" fill="url(#paint1_linear_322_30457)"/>
<path d="M117 95C110.925 95 106 90.0751 106 84L106 38C106 29.1636 98.8367 22 90 22L44 22C37.9249 22 33 17.0751 33 11C33 4.92487 37.9249 -5.31105e-07 44 0L90 4.02145e-06C110.987 5.85617e-06 128 17.0132 128 38L128 84C128 90.0751 123.075 95 117 95Z" fill="url(#paint2_linear_322_30457)"/>
<defs>
<linearGradient id="paint0_linear_322_30457" x1="64" y1="38" x2="64" y2="90" gradientUnits="userSpaceOnUse">
<stop stop-color="#03E39E"/>
<stop offset="1" stop-color="#03986A"/>
</linearGradient>
<linearGradient id="paint1_linear_322_30457" x1="47.5" y1="33" x2="47.5" y2="128" gradientUnits="userSpaceOnUse">
<stop stop-color="#7D72CB"/>
<stop offset="1" stop-color="#4B3EA8"/>
</linearGradient>
<linearGradient id="paint2_linear_322_30457" x1="80.5" y1="0" x2="80.5" y2="95" gradientUnits="userSpaceOnUse">
<stop stop-color="#7D72CB"/>
<stop offset="1" stop-color="#4B3EA8"/>
</linearGradient>
</defs>
</svg>
